<mxfile host="app.diagrams.net" agent="Mozilla/5.0 (Macintosh; Intel Mac OS X 10_15_7) AppleWebKit/605.1.15 (KHTML, like Gecko) Version/17.3 Safari/605.1.15" version="26.0.6">
  <diagram name="Page-1" id="4rOy4iKqAruxXbhjo2yN">
    <mxGraphModel dx="1434" dy="948" grid="1" gridSize="10" guides="1" tooltips="1" connect="1" arrows="1" fold="1" page="1" pageScale="1" pageWidth="850" pageHeight="1100" math="0" shadow="0">
      <root>
        <mxCell id="0" />
        <mxCell id="1" parent="0" />
        <mxCell id="rMnHz2cr47F_pHoi-0KD-1" value="Investors" style="rounded=0;whiteSpace=wrap;html=1;" parent="1" vertex="1">
          <mxGeometry x="110" y="200" width="80" height="40" as="geometry" />
        </mxCell>
        <mxCell id="rMnHz2cr47F_pHoi-0KD-3" value="Phone No." style="ellipse;whiteSpace=wrap;html=1;" parent="1" vertex="1">
          <mxGeometry x="60" y="300" width="70" height="40" as="geometry" />
        </mxCell>
        <mxCell id="rMnHz2cr47F_pHoi-0KD-4" value="DOB" style="ellipse;whiteSpace=wrap;html=1;" parent="1" vertex="1">
          <mxGeometry x="160" y="90" width="70" height="40" as="geometry" />
        </mxCell>
        <mxCell id="rMnHz2cr47F_pHoi-0KD-5" value="Name" style="ellipse;whiteSpace=wrap;html=1;" parent="1" vertex="1">
          <mxGeometry x="190" y="270" width="70" height="40" as="geometry" />
        </mxCell>
        <mxCell id="rMnHz2cr47F_pHoi-0KD-6" value="Gender" style="ellipse;whiteSpace=wrap;html=1;" parent="1" vertex="1">
          <mxGeometry x="10" y="250" width="70" height="40" as="geometry" />
        </mxCell>
        <mxCell id="rMnHz2cr47F_pHoi-0KD-7" value="" style="endArrow=none;html=1;rounded=0;entryX=0.5;entryY=1;entryDx=0;entryDy=0;exitX=1;exitY=0.25;exitDx=0;exitDy=0;exitPerimeter=0;" parent="1" source="rMnHz2cr47F_pHoi-0KD-6" target="rMnHz2cr47F_pHoi-0KD-1" edge="1">
          <mxGeometry width="50" height="50" relative="1" as="geometry">
            <mxPoint x="140" y="310" as="sourcePoint" />
            <mxPoint x="190" y="260" as="targetPoint" />
          </mxGeometry>
        </mxCell>
        <mxCell id="rMnHz2cr47F_pHoi-0KD-8" value="" style="endArrow=none;html=1;rounded=0;entryX=0.5;entryY=1;entryDx=0;entryDy=0;" parent="1" source="rMnHz2cr47F_pHoi-0KD-3" target="rMnHz2cr47F_pHoi-0KD-1" edge="1">
          <mxGeometry width="50" height="50" relative="1" as="geometry">
            <mxPoint x="140" y="310" as="sourcePoint" />
            <mxPoint x="150" y="250" as="targetPoint" />
          </mxGeometry>
        </mxCell>
        <mxCell id="rMnHz2cr47F_pHoi-0KD-9" value="" style="endArrow=none;html=1;rounded=0;exitX=0.5;exitY=1;exitDx=0;exitDy=0;entryX=0.63;entryY=0.047;entryDx=0;entryDy=0;entryPerimeter=0;" parent="1" source="rMnHz2cr47F_pHoi-0KD-4" target="rMnHz2cr47F_pHoi-0KD-1" edge="1">
          <mxGeometry width="50" height="50" relative="1" as="geometry">
            <mxPoint x="140" y="310" as="sourcePoint" />
            <mxPoint x="150" y="240" as="targetPoint" />
          </mxGeometry>
        </mxCell>
        <mxCell id="rMnHz2cr47F_pHoi-0KD-10" value="" style="endArrow=none;html=1;rounded=0;exitX=0;exitY=0;exitDx=0;exitDy=0;entryX=0.5;entryY=1;entryDx=0;entryDy=0;" parent="1" source="rMnHz2cr47F_pHoi-0KD-5" target="rMnHz2cr47F_pHoi-0KD-1" edge="1">
          <mxGeometry width="50" height="50" relative="1" as="geometry">
            <mxPoint x="140" y="310" as="sourcePoint" />
            <mxPoint x="150" y="250" as="targetPoint" />
            <Array as="points">
              <mxPoint x="180" y="260" />
            </Array>
          </mxGeometry>
        </mxCell>
        <mxCell id="rMnHz2cr47F_pHoi-0KD-11" value="Risk Tolerance" style="ellipse;whiteSpace=wrap;html=1;" parent="1" vertex="1">
          <mxGeometry x="30" y="130" width="70" height="40" as="geometry" />
        </mxCell>
        <mxCell id="rMnHz2cr47F_pHoi-0KD-12" value="" style="endArrow=none;html=1;rounded=0;entryX=0.588;entryY=0.05;entryDx=0;entryDy=0;entryPerimeter=0;exitX=1;exitY=1;exitDx=0;exitDy=0;" parent="1" source="rMnHz2cr47F_pHoi-0KD-11" target="rMnHz2cr47F_pHoi-0KD-1" edge="1">
          <mxGeometry width="50" height="50" relative="1" as="geometry">
            <mxPoint x="140" y="310" as="sourcePoint" />
            <mxPoint x="190" y="260" as="targetPoint" />
          </mxGeometry>
        </mxCell>
        <mxCell id="rMnHz2cr47F_pHoi-0KD-14" value="Financial Goals" style="rounded=0;whiteSpace=wrap;html=1;" parent="1" vertex="1">
          <mxGeometry x="390" y="200" width="80" height="40" as="geometry" />
        </mxCell>
        <mxCell id="rMnHz2cr47F_pHoi-0KD-15" value="Title" style="ellipse;whiteSpace=wrap;html=1;" parent="1" vertex="1">
          <mxGeometry x="300" y="140" width="70" height="40" as="geometry" />
        </mxCell>
        <mxCell id="rMnHz2cr47F_pHoi-0KD-16" value="Timeline" style="ellipse;whiteSpace=wrap;html=1;" parent="1" vertex="1">
          <mxGeometry x="390" y="110" width="70" height="40" as="geometry" />
        </mxCell>
        <mxCell id="rMnHz2cr47F_pHoi-0KD-17" value="Money Required" style="ellipse;whiteSpace=wrap;html=1;" parent="1" vertex="1">
          <mxGeometry x="470" y="140" width="70" height="40" as="geometry" />
        </mxCell>
        <mxCell id="rMnHz2cr47F_pHoi-0KD-18" value="" style="endArrow=none;html=1;rounded=0;exitX=1;exitY=1;exitDx=0;exitDy=0;entryX=0.425;entryY=-0.075;entryDx=0;entryDy=0;entryPerimeter=0;" parent="1" source="rMnHz2cr47F_pHoi-0KD-15" target="rMnHz2cr47F_pHoi-0KD-14" edge="1">
          <mxGeometry width="50" height="50" relative="1" as="geometry">
            <mxPoint x="380" y="270" as="sourcePoint" />
            <mxPoint x="430" y="220" as="targetPoint" />
          </mxGeometry>
        </mxCell>
        <mxCell id="rMnHz2cr47F_pHoi-0KD-19" value="" style="endArrow=none;html=1;rounded=0;exitX=0.5;exitY=1;exitDx=0;exitDy=0;" parent="1" source="rMnHz2cr47F_pHoi-0KD-16" edge="1">
          <mxGeometry width="50" height="50" relative="1" as="geometry">
            <mxPoint x="380" y="270" as="sourcePoint" />
            <mxPoint x="430" y="200" as="targetPoint" />
          </mxGeometry>
        </mxCell>
        <mxCell id="rMnHz2cr47F_pHoi-0KD-20" value="" style="endArrow=none;html=1;rounded=0;exitX=0.386;exitY=0.925;exitDx=0;exitDy=0;exitPerimeter=0;entryX=0.5;entryY=0;entryDx=0;entryDy=0;" parent="1" source="rMnHz2cr47F_pHoi-0KD-17" target="rMnHz2cr47F_pHoi-0KD-14" edge="1">
          <mxGeometry width="50" height="50" relative="1" as="geometry">
            <mxPoint x="380" y="270" as="sourcePoint" />
            <mxPoint x="430" y="220" as="targetPoint" />
          </mxGeometry>
        </mxCell>
        <mxCell id="rMnHz2cr47F_pHoi-0KD-21" value="Has" style="rhombus;whiteSpace=wrap;html=1;" parent="1" vertex="1">
          <mxGeometry x="250" y="195" width="50" height="50" as="geometry" />
        </mxCell>
        <mxCell id="rMnHz2cr47F_pHoi-0KD-23" value="" style="endArrow=none;html=1;rounded=0;entryX=0;entryY=0.5;entryDx=0;entryDy=0;exitX=1;exitY=0.5;exitDx=0;exitDy=0;" parent="1" source="rMnHz2cr47F_pHoi-0KD-21" target="rMnHz2cr47F_pHoi-0KD-14" edge="1">
          <mxGeometry width="50" height="50" relative="1" as="geometry">
            <mxPoint x="310" y="220" as="sourcePoint" />
            <mxPoint x="320" y="160" as="targetPoint" />
          </mxGeometry>
        </mxCell>
        <mxCell id="rMnHz2cr47F_pHoi-0KD-24" value="" style="endArrow=classic;html=1;rounded=0;entryX=1;entryY=0.5;entryDx=0;entryDy=0;exitX=0;exitY=0.5;exitDx=0;exitDy=0;" parent="1" source="rMnHz2cr47F_pHoi-0KD-21" target="rMnHz2cr47F_pHoi-0KD-1" edge="1">
          <mxGeometry width="50" height="50" relative="1" as="geometry">
            <mxPoint x="270" y="210" as="sourcePoint" />
            <mxPoint x="320" y="160" as="targetPoint" />
          </mxGeometry>
        </mxCell>
        <mxCell id="rMnHz2cr47F_pHoi-0KD-25" value="Assets" style="rounded=0;whiteSpace=wrap;html=1;" parent="1" vertex="1">
          <mxGeometry x="110" y="620" width="80" height="40" as="geometry" />
        </mxCell>
        <mxCell id="rMnHz2cr47F_pHoi-0KD-55" style="edgeStyle=orthogonalEdgeStyle;rounded=0;orthogonalLoop=1;jettySize=auto;html=1;exitX=0.5;exitY=1;exitDx=0;exitDy=0;entryX=0.5;entryY=0;entryDx=0;entryDy=0;" parent="1" source="rMnHz2cr47F_pHoi-0KD-37" target="rMnHz2cr47F_pHoi-0KD-40" edge="1">
          <mxGeometry relative="1" as="geometry" />
        </mxCell>
        <mxCell id="rMnHz2cr47F_pHoi-0KD-37" value="Has" style="rhombus;whiteSpace=wrap;html=1;" parent="1" vertex="1">
          <mxGeometry x="120" y="340" width="60" height="60" as="geometry" />
        </mxCell>
        <mxCell id="rMnHz2cr47F_pHoi-0KD-39" value="" style="endArrow=none;html=1;rounded=0;exitX=0.5;exitY=0;exitDx=0;exitDy=0;" parent="1" source="rMnHz2cr47F_pHoi-0KD-37" edge="1">
          <mxGeometry width="50" height="50" relative="1" as="geometry">
            <mxPoint x="280" y="360" as="sourcePoint" />
            <mxPoint x="150" y="240" as="targetPoint" />
          </mxGeometry>
        </mxCell>
        <mxCell id="rMnHz2cr47F_pHoi-0KD-40" value="Portfolio" style="rounded=0;whiteSpace=wrap;html=1;" parent="1" vertex="1">
          <mxGeometry x="110" y="445" width="80" height="40" as="geometry" />
        </mxCell>
        <mxCell id="rMnHz2cr47F_pHoi-0KD-45" value="Of" style="rhombus;whiteSpace=wrap;html=1;" parent="1" vertex="1">
          <mxGeometry x="120" y="525" width="60" height="60" as="geometry" />
        </mxCell>
        <mxCell id="rMnHz2cr47F_pHoi-0KD-46" value="" style="endArrow=none;html=1;rounded=0;entryX=0.5;entryY=1;entryDx=0;entryDy=0;exitX=0.5;exitY=0;exitDx=0;exitDy=0;" parent="1" source="rMnHz2cr47F_pHoi-0KD-52" target="rMnHz2cr47F_pHoi-0KD-40" edge="1">
          <mxGeometry width="50" height="50" relative="1" as="geometry">
            <mxPoint x="150" y="520" as="sourcePoint" />
            <mxPoint x="330" y="460" as="targetPoint" />
          </mxGeometry>
        </mxCell>
        <mxCell id="rMnHz2cr47F_pHoi-0KD-47" value="" style="endArrow=none;html=1;rounded=0;entryX=0.5;entryY=1;entryDx=0;entryDy=0;exitX=0.5;exitY=0;exitDx=0;exitDy=0;" parent="1" source="rMnHz2cr47F_pHoi-0KD-25" target="rMnHz2cr47F_pHoi-0KD-45" edge="1">
          <mxGeometry width="50" height="50" relative="1" as="geometry">
            <mxPoint x="280" y="510" as="sourcePoint" />
            <mxPoint x="330" y="460" as="targetPoint" />
          </mxGeometry>
        </mxCell>
        <mxCell id="rMnHz2cr47F_pHoi-0KD-53" value="" style="endArrow=none;html=1;rounded=0;entryX=1;entryY=0.5;entryDx=0;entryDy=0;exitX=0.5;exitY=0;exitDx=0;exitDy=0;entryPerimeter=0;" parent="1" source="rMnHz2cr47F_pHoi-0KD-45" target="rMnHz2cr47F_pHoi-0KD-52" edge="1">
          <mxGeometry width="50" height="50" relative="1" as="geometry">
            <mxPoint x="150" y="525" as="sourcePoint" />
            <mxPoint x="150" y="485" as="targetPoint" />
          </mxGeometry>
        </mxCell>
        <mxCell id="rMnHz2cr47F_pHoi-0KD-52" value="" style="shape=requiredInterface;html=1;verticalLabelPosition=bottom;sketch=0;rotation=-90;" parent="1" vertex="1">
          <mxGeometry x="145" y="480" width="10" height="20" as="geometry" />
        </mxCell>
        <mxCell id="rMnHz2cr47F_pHoi-0KD-71" value="" style="endArrow=none;html=1;rounded=0;exitX=1;exitY=0.75;exitDx=0;exitDy=0;" parent="1" target="rMnHz2cr47F_pHoi-0KD-69" edge="1">
          <mxGeometry width="50" height="50" relative="1" as="geometry">
            <mxPoint x="430" y="577.5" as="sourcePoint" />
            <mxPoint x="440" y="620" as="targetPoint" />
          </mxGeometry>
        </mxCell>
        <mxCell id="rMnHz2cr47F_pHoi-0KD-72" value="Post-Trade Companies" style="rounded=0;whiteSpace=wrap;html=1;" parent="1" vertex="1">
          <mxGeometry x="105" y="785" width="90" height="40" as="geometry" />
        </mxCell>
        <mxCell id="rMnHz2cr47F_pHoi-0KD-73" value="Bought By" style="rhombus;whiteSpace=wrap;html=1;" parent="1" vertex="1">
          <mxGeometry x="115" y="690" width="70" height="60" as="geometry" />
        </mxCell>
        <mxCell id="rMnHz2cr47F_pHoi-0KD-74" value="" style="endArrow=none;html=1;rounded=0;entryX=0.5;entryY=1;entryDx=0;entryDy=0;exitX=0.5;exitY=0;exitDx=0;exitDy=0;" parent="1" source="rMnHz2cr47F_pHoi-0KD-73" target="rMnHz2cr47F_pHoi-0KD-25" edge="1">
          <mxGeometry width="50" height="50" relative="1" as="geometry">
            <mxPoint x="200" y="630" as="sourcePoint" />
            <mxPoint x="250" y="580" as="targetPoint" />
          </mxGeometry>
        </mxCell>
        <mxCell id="rMnHz2cr47F_pHoi-0KD-76" value="" style="endArrow=classic;html=1;rounded=0;exitX=0.5;exitY=1;exitDx=0;exitDy=0;entryX=0.5;entryY=0;entryDx=0;entryDy=0;" parent="1" source="rMnHz2cr47F_pHoi-0KD-73" target="rMnHz2cr47F_pHoi-0KD-72" edge="1">
          <mxGeometry width="50" height="50" relative="1" as="geometry">
            <mxPoint x="140" y="780" as="sourcePoint" />
            <mxPoint x="190" y="730" as="targetPoint" />
          </mxGeometry>
        </mxCell>
      </root>
    </mxGraphModel>
  </diagram>
</mxfile>
